<svg xmlns="http://www.w3.org/2000/svg" viewBox="0 0 41 41"><title>Untitled-1</title><path d="M37.31,18.38l-.58,1.11c-.16.3-.42.3-.57,0L35,17.34c-.16-.3-.42-.3-.57,0l-1.19,2.25c-.15.29-.41.29-.56,0l-1.09-2.07c-.16-.3-.41-.3-.57,0l-1.18,2.25c-.16.29-.42.29-.57,0l-.62-1.19c-.26-.48-.69-.14-.69.55v1.56a7.48,7.48,0,0,1-13.83,3.79,6.49,6.49,0,0,0,.49-.83c.77-1.51.95-3,.4-3.24s-1.23.41-1.92,1.46A7.76,7.76,0,0,1,13,20.5a5,5,0,0,0-10,0,17.78,17.78,0,0,0,.28,3C2.08,22.87,1,22.7.65,23.18S1.11,25,2.52,25.9a6.54,6.54,0,0,0,1.64.81,17.48,17.48,0,0,0,33.79-5h0c0-.41,0-.82,0-1.23V18.92C38,18.24,37.56,17.9,37.31,18.38ZM6.05,21.87A1.07,1.07,0,1,1,7.12,20.8,1.07,1.07,0,0,1,6.05,21.87Zm3.56-.47a1.08,1.08,0,1,1,1.08-1.07A1.07,1.07,0,0,1,9.61,21.4Z" fill="#fff"/></svg>